<svg width="280" height="220" viewBox="0 0 280 220" fill="none" xmlns="http://www.w3.org/2000/svg">
  <defs>
    <linearGradient id="body" x1="58" y1="92" x2="222" y2="196" gradientUnits="userSpaceOnUse">
      <stop stop-color="#FFE06F"/>
      <stop offset="1" stop-color="#F4BE36"/>
    </linearGradient>
    <linearGradient id="shackle" x1="80" y1="24" x2="210" y2="116" gradientUnits="userSpaceOnUse">
      <stop stop-color="#EFEFEF"/>
      <stop offset="1" stop-color="#9C9C9C"/>
    </linearGradient>
    <filter id="shadow" x="34" y="10" width="212" height="196" filterUnits="userSpaceOnUse" color-interpolation-filters="sRGB">
      <feDropShadow dx="0" dy="14" stdDeviation="13" flood-color="#000000" flood-opacity="0.34"/>
    </filter>
  </defs>
  <g filter="url(#shadow)">
    <path d="M86 97V84C86 50.3 110.1 26 140 26C169.9 26 194 50.3 194 84V97" stroke="url(#shackle)" stroke-width="18" stroke-linecap="round"/>
    <rect x="58" y="88" width="164" height="108" rx="11" fill="url(#body)"/>
    <path d="M58 100C58 93.4 63.4 88 70 88H210C216.6 88 222 93.4 222 100V110H58V100Z" fill="white" fill-opacity="0.18"/>
    <circle cx="140" cy="132" r="20" fill="white"/>
    <path d="M134 148H146V175H134V148Z" fill="white"/>
  </g>
</svg>
